<?xml version="1.0" encoding="utf-8"?>
<!-- Generator: Adobe Illustrator 19.0.0, SVG Export Plug-In . SVG Version: 6.00 Build 0)  -->
<svg version="1.1" id="Layer_1" xmlns="http://www.w3.org/2000/svg" xmlns:xlink="http://www.w3.org/1999/xlink" x="0px" y="0px"
	 width="200px" height="200px" viewBox="0 0 200 200" style="enable-background:new 0 0 200 200;" xml:space="preserve">
<style type="text/css">
	.st0{display:none;fill:#ED1C24;}
	.st1{enable-background:new    ;}
	.st2{fill:#010101;}
</style>
<g id="Layer_1_1_">
	<circle id="XMLID_28_" class="st0" cx="100.3" cy="99" r="100"/>
	<g id="XMLID_27_" class="st1">
		<path id="XMLID_40_" class="st2" d="M61.3,46.8c-0.2,0.4-0.4,0.7-0.8,0.8c-0.3,0.1-0.7,0.1-1-0.1c-0.4-0.1-0.6-0.3-0.5-0.7
			c0.1-0.4,0.2-0.8,0.4-1.1c2.1-5.8,3.1-9.9,3.1-12.6c0-2.6-0.7-3.9-2.1-3.9c-1.4,0-3.2,1.2-5.5,3.6c-2.3,2.4-4.7,5.7-7.2,9.9
			c-2.5,4.3-4.9,9.3-7.1,15.2c-2.2,5.9-4,12.3-5.2,19.3c-0.9,5.3-0.8,9.2,0.6,11.6c1.3,2.4,3.2,3.6,5.5,3.5c2.4-0.1,5-1.3,7.9-3.5
			c2.9-2.3,5.5-5.4,7.9-9.5c0.3-0.5,0.7-0.8,1-0.9c0.3-0.1,0.6,0,0.8,0.1c0.2,0.2,0.3,0.4,0.4,0.8c0.1,0.3,0.1,0.6,0,0.9
			c-1.3,2.2-2.7,4.3-4.4,6.3C53.7,88.3,52,90,50,91.7c-1.9,1.7-4.1,3.1-6.6,4.1c-1.8,0.8-3.8,1.2-6,1.3c-2.2,0.1-4.3-0.3-6.4-1.2
			c-2.1-0.9-3.9-2.4-5.5-4.4c-1.6-2-2.8-4.8-3.5-8.3c-0.7-6.3-0.4-12.2,0.8-17.8c1.2-5.6,3.1-10.7,5.5-15.3c2.4-4.6,5.3-8.6,8.4-12
			c3.2-3.4,6.4-6.2,9.5-8.2c3.2-2.1,6.2-3.3,9-3.9c2.8-0.5,5-0.1,6.6,1.1c1.6,1.2,2.5,3.5,2.6,6.7C64.6,37.1,63.5,41.4,61.3,46.8z"
			/>
		<path id="XMLID_42_" class="st2" d="M81.1,84.8c-2.3-0.9-3.8-2.5-4.5-4.6c-0.7-2.1-0.9-4.3-0.8-6.5c0.1-1,0.3-2.1,0.5-3.3
			c0.3-1.2,0.7-2.3,1.2-3.3c0.6-1,1.3-1.8,2.1-2.5c0.9-0.7,1.9-1.1,3.2-1.3c2.2-0.1,3.7,0.6,4.4,2.2c0.7,1.5,1,3.4,0.8,5.6
			c-0.2,2.2-0.6,4.4-1.3,6.7c-0.7,2.3-1.3,4.1-1.9,5.3c2.1,0.2,4.1,0,6-0.6c1.8-0.6,3.4-1.2,4.8-2c1.3-0.8,2.4-1.5,3.3-2.3
			c0.9-0.8,1.4-1.3,1.7-1.5h0.1c0.3-0.3,0.6-0.4,1-0.4c0.4,0,0.7,0.1,0.9,0.4c0.8,0.6,0.8,1.2,0,1.8v0.3c-0.3,0.3-0.9,0.8-1.9,1.7
			c-1,0.9-2.3,1.8-3.9,2.7c-1.6,0.9-3.5,1.7-5.7,2.3c-2.1,0.6-4.6,0.8-7.2,0.5l-0.3-0.1c-1.1,2-2.3,3.9-3.6,5.7
			c-1.4,1.7-2.9,3-4.6,3.9c-1.7,0.9-3.4,1.4-5.1,1.4c-1.7,0-3.3-0.5-4.8-1.6c-1.5-1.1-2.7-2.7-3.5-5c-0.4-1-0.6-2.6-0.4-4.8
			c0.2-2.2,0.5-4.4,1.1-6.8c0.6-2.3,1.2-4.4,2.1-6.4c0.8-1.9,1.7-3.2,2.6-3.9c1.1-0.8,2.4-1.1,3.8-1c1.4,0.1,2.7,0.4,3.8,0.7
			c0.3,0.2,0.4,0.6,0.5,1.4c0,0.7,0,1.6-0.1,2.6c-0.1,1-0.3,2.1-0.5,3.2c-0.2,1.1-0.5,2.1-0.7,3c-0.2,0.8-0.5,1.9-0.8,3.3
			c-0.4,1.4-0.7,2.9-1,4.4c-0.3,1.5-0.4,3-0.5,4.3c-0.1,1.3,0,2.3,0.4,2.9c0.3,0.6,0.9,0.7,1.8,0.3c0.9-0.4,2.1-1.7,3.7-3.7
			c0.6-0.7,1.1-1.4,1.6-2.2c0.5-0.8,1-1.6,1.5-2.4L81.1,84.8z M82.4,82.2c0.3-0.9,0.8-2.2,1.4-4c0.6-1.8,1.1-3.6,1.4-5.4
			c0.3-1.8,0.4-3.4,0.2-4.7c-0.2-1.3-1-2-2.3-1.9c-0.9,0.1-1.7,0.4-2.3,1c-0.6,0.6-1,1.2-1.3,2c-0.3,0.8-0.5,1.6-0.7,2.4
			c-0.2,0.9-0.3,1.6-0.3,2.3c-0.2,1.6,0,3.2,0.5,4.8C79.6,80.4,80.7,81.5,82.4,82.2z"/>
		<path id="XMLID_45_" class="st2" d="M127.5,94.2c1.5-1.2,3.2-3,5.1-5.3c1.8-2.4,3.5-4.8,5.1-7.3c1.8-2.8,3.6-5.9,5.4-9.1
			c0.6-0.8,1.2-0.9,1.9-0.5c0.6,0.4,0.8,1.1,0.6,1.9c-1.2,2.1-2.3,4-3.3,5.7c-1,1.6-2.1,3.4-3.4,5.3c-1.3,1.9-2.6,3.8-4.1,5.5
			c-1.4,1.8-2.8,3.3-4.2,4.6c-1.4,1.3-2.7,2.2-3.9,2.6c-2.5,0.9-4.5,1-6,0.1c-1.5-0.9-2.6-2.2-3.4-4c-0.8-1.8-1.2-3.8-1.4-6
			c-0.2-2.2-0.2-4.3,0-6.1c-2.6,3.2-5.1,5.4-7.5,6.6c-2.4,1.2-4.5,1.5-6.2,0.8c-1.7-0.7-3-2.3-3.8-4.8c-0.8-2.5-0.9-5.8-0.2-10
			c0.5-2.9,1.3-5.5,2.4-7.9c1.1-2.3,2.6-4.2,4.4-5.7c1.8-1.5,4-2.5,6.6-3c2.6-0.6,5.6-0.5,9,0.2c0.5-2.3,1.2-5.3,2.1-9
			c0.9-3.7,2.1-7.3,3.7-10.7c1.5-3.4,3.5-6.2,5.9-8.4c2.4-2.1,5.4-2.8,8.9-2.1c1.4,0.3,2.4,0.8,3.2,1.6c0.7,0.8,1.2,1.8,1.5,2.8
			c0.3,1.1,0.3,2.2,0.3,3.4c-0.1,1.2-0.3,2.3-0.5,3.3c-0.4,1.7-1.1,3.5-2.1,5.2c-0.9,1.8-2.1,3.5-3.5,5.1c-1.4,1.6-2.9,3.1-4.5,4.5
			c-1.6,1.4-3.3,2.5-4.9,3.3c-0.3,0.9-0.8,2.7-1.5,5.2c-0.7,2.5-1.5,5.4-2.3,8.5c-0.8,3.1-1.5,6.4-2.1,9.7c-0.6,3.3-1,6.2-1.2,8.6
			c-0.1,2.4,0.1,4.2,0.6,5.3C124.8,95.4,125.9,95.4,127.5,94.2z M107.3,86.2c2.2-1,4.1-2.5,5.5-4.4c1.4-1.9,2.7-3.9,3.9-5.9
			c0.4-2.6,0.9-5.2,1.5-7.7c0.6-2.6,1.1-5.2,1.7-7.7c-2.6,0-4.7,0.7-6.5,2c-1.8,1.3-3.2,3-4.4,5c-1.2,2-2,4.1-2.6,6.3
			c-0.6,2.2-0.9,4.3-1,6.2c-0.1,1.9,0,3.5,0.4,4.7C106.2,85.9,106.7,86.4,107.3,86.2z M131.9,53.1c1.3-0.9,2.8-2.3,4.5-4.1
			c1.7-1.8,3.2-3.8,4.5-5.9c1.3-2.1,2.1-4.2,2.6-6.2c0.4-2.1,0-3.8-1.2-5.3c-1.7-1-3.1-0.9-4.1,0.4c-1,1.3-1.9,3.1-2.6,5.5
			c-0.7,2.4-1.3,5-1.9,7.9C133.2,48.3,132.6,50.9,131.9,53.1z"/>
		<path id="XMLID_49_" class="st2" d="M164.2,67.9c-0.3,1.3-0.8,2.4-1.6,3.3c-0.8,0.9-1.8,1.8-2.9,2.4c-1.1,0.7-2.3,1.2-3.6,1.5
			c-1.3,0.3-2.5,0.5-3.7,0.5c-0.4,0.7-0.8,1.5-1.2,2.6c-0.4,1-0.7,2.1-0.9,3.3c-0.2,1.2-0.4,2.3-0.5,3.4c-0.1,1.1-0.1,2.1,0,3
			c0.3,1.5,1,2.4,2.1,2.5c1,0.1,2.3-0.2,3.7-1c1.4-0.8,2.9-1.9,4.6-3.3c1.6-1.4,3.2-2.9,4.7-4.5c1.5-1.6,2.9-3.1,4.1-4.6
			c1.2-1.5,2.2-2.6,2.9-3.5c0.3-0.3,0.6-0.7,0.9-1.1c0.3-0.4,0.6-0.8,0.9-1.1c0.3-0.3,0.7-0.6,1-0.6c0.3-0.1,0.8,0,1.3,0.3
			c0.5,0.7,0.5,1.3,0,1.9c-0.8,0.9-1.8,2.2-3,3.9c-1.2,1.6-2.6,3.4-4.1,5.2c-1.5,1.8-3.2,3.6-5.1,5.3c-1.8,1.7-3.8,3.1-5.7,4.1
			c-2,1-4,1.6-6.1,1.7c-2.1,0.1-4.1-0.6-6.2-2.1c-2.1-1.5-3.4-3.4-4-5.8c-0.6-2.4-0.7-4.9-0.2-7.6c0.5-2.7,1.4-5.2,2.8-7.6
			c1.4-2.4,3.1-4.4,5.1-5.9c2-1.5,4.1-2.4,6.4-2.6c2.3-0.2,4.6,0.7,6.8,2.6C163.7,65,164.2,66.2,164.2,67.9z M161.6,66.1
			c-0.8-0.3-1.6-0.1-2.4,0.3c-0.8,0.5-1.6,1.1-2.3,1.9c-0.7,0.8-1.3,1.6-1.9,2.4c-0.6,0.9-1,1.6-1.4,2.2c0.8,0,1.8-0.1,3-0.5
			c1.2-0.3,2.3-0.7,3.3-1.3c1-0.6,1.7-1.3,2.1-2.1C162.6,68.2,162.4,67.2,161.6,66.1z"/>
	</g>
	<g id="XMLID_29_" class="st1">
		<path id="XMLID_30_" class="st2" d="M66.7,102c3.2-0.4,6.4-0.9,9.6-1.4c3.2-0.5,6.3-0.9,9.2-1.2c2.9-0.3,5.6-0.6,8.1-0.8
			c2.5-0.2,4.6-0.3,6.3-0.3c0.9,0.3,1.4,0.9,1.4,1.5c0,0.9-0.5,1.3-1.4,1.3c-1.7,0-3.8,0.1-6.1,0.3c-2.4,0.2-4.9,0.4-7.7,0.7
			c-2.8,0.3-5.7,0.7-8.8,1.1c-3,0.4-6.1,0.9-9.2,1.4c-0.2,1.8-0.6,4.6-1.3,8.3c-0.7,3.7-1.5,8-2.4,12.7c-0.9,4.7-2,9.6-3.1,14.6
			c-1.1,5-2.2,9.7-3.2,14c-1,4.3-1.9,8-2.6,11c-0.8,3-1.3,4.9-1.5,5.5c0,0.2-0.1,0.3-0.4,0.4c-0.2,0.1-0.4,0.2-0.8,0.3
			c-0.3,0.1-0.8,0-1.3-0.1c-0.3,0-0.9-0.3-1.9-0.9c-1-0.6-2-1.4-3-2.5c-1-1.1-2-2.4-2.8-3.9c-0.8-1.5-1.2-3.3-1.1-5.3
			c0-1.2,0.3-3.2,0.8-5.9c0.5-2.7,1.1-5.9,1.9-9.4c0.7-3.5,1.5-7.2,2.4-11.1c0.9-3.9,1.8-7.5,2.6-10.9c0.8-3.4,1.5-6.5,2.2-9.1
			c0.6-2.6,1.1-4.4,1.4-5.3c-4.2,0.8-7.6,1.4-10.2,1.9c-2.6,0.5-4,0.8-4.2,0.8c-0.4,0.1-0.8,0-1.1-0.2c-0.3-0.2-0.5-0.5-0.5-1
			c-0.2-0.9,0.2-1.5,1-1.7c0.1,0,2.6-0.5,7.6-1.4C51.6,104.5,58.3,103.4,66.7,102z"/>
		<path id="XMLID_32_" class="st2" d="M68,142.2c1.4-0.4,2.7-0.8,3.9-1.2c1-0.3,2-0.4,3-0.5c0.9,0,1.6,0.1,2.1,0.5
			c0.3,0.3,0.5,1.1,0.3,2.1c-0.1,1.1-0.3,2.2-0.6,3.5c-0.3,1.2-0.7,2.4-1.1,3.6c-0.4,1.2-0.7,2-0.9,2.5c-0.3,0.8-0.7,2-1.2,3.7
			c-0.6,1.7-0.9,3.3-1.2,4.8c-0.2,1.5-0.1,2.5,0.3,3.2c0.4,0.6,1.5,0.3,3.2-1.1c1.4-1.1,2.9-2.6,4.7-4.4c1.8-1.8,3.5-3.6,5.2-5.4
			c1.9-2.1,3.9-4.3,5.9-6.6c0.3-0.3,0.6-0.5,1-0.6c0.4,0,0.7,0.1,1,0.4c0.3,0.2,0.5,0.5,0.6,0.8c0,0.4-0.1,0.8-0.5,1.2
			c-2.1,2.2-4.1,4.4-6.1,6.6c-1.7,1.8-3.5,3.7-5.3,5.5c-1.8,1.9-3.4,3.4-4.9,4.5c-0.8,0.7-1.9,1.4-3.3,2.3c-1.4,0.8-2.7,1.1-3.9,1
			c-1.3,0-2.4-0.3-3.5-0.9c-1-0.6-1.9-1.4-2.5-2.3c-0.6-0.9-1.1-2-1.4-3.2c-0.3-1.2-0.3-2.4,0-3.6c0.3-2.3,0.8-4.5,1.4-6.5
			c0.6-2,1.1-3.8,1.7-5.2C66.6,145.2,67.3,143.6,68,142.2z M75.6,129.4c0.9,0,1.7,0.3,2.4,1c0.7,0.7,1.1,1.5,1.1,2.4
			c0,0.9-0.4,1.7-1.1,2.4c-0.7,0.6-1.5,1-2.4,1c-0.9,0-1.8-0.3-2.4-1c-0.7-0.6-1-1.4-1-2.4c0-0.9,0.3-1.8,1-2.4
			C73.8,129.8,74.6,129.4,75.6,129.4z"/>
		<path id="XMLID_35_" class="st2" d="M117.7,177.5c-1.5-0.3-2.5-0.8-3-1.5c-0.6-0.7-0.9-1.8-1-3.3c0-2,0.2-3.8,0.6-5.6
			c0.4-1.8,0.9-3.5,1.5-5.3c0.9-2.7,2-5.5,3.2-8.2c1.2-2.7,2.4-5.6,3.8-8.8c-0.9,0.8-1.9,1.7-2.8,2.6c-0.9,1-1.8,2-2.6,3
			c-0.9,1-1.7,2-2.4,3c-0.7,0.9-1.3,1.8-1.7,2.4c-0.3,0.4-0.6,0.9-0.8,1.3c-0.2,0.4-0.4,0.8-0.6,1.2c-0.3,0.3-0.6,0.6-1,0.7
			c-0.4,0.1-1.1,0.1-1.9-0.1c-1.8-0.3-2.9-1.2-3.3-2.6c-0.4-1.4-0.4-3-0.1-4.8c0.3-1.8,0.8-3.5,1.4-5.3c0.6-1.8,1.1-3.2,1.4-4.3
			l0.6-2.2c-1.1,1-2.3,2.3-3.5,3.7c-1.2,1.5-2.4,3-3.5,4.5c-1.1,1.5-2.1,3-3,4.3c-0.9,1.3-1.5,2.2-1.8,2.8c-1.2,4.3-2.4,7.1-3.7,8.4
			c-1.2,1.3-3.1,1.3-5.6,0c-0.7-0.4-1.1-1.1-1.4-1.9c-0.2-0.8-0.3-1.7-0.2-2.6c0.1-0.9,0.2-1.8,0.5-2.6c0.2-0.9,0.4-1.6,0.6-2.2
			c0.4-1.5,0.8-3,1.2-4.3c0.3-1.3,0.7-2.6,1-3.8c0.3-1.2,0.6-2.4,0.9-3.7c0.3-1.3,0.6-2.7,1-4.3c0.3-0.8,0.5-1.4,0.6-1.8
			c0.1-0.4,0.4-0.7,0.7-0.8c0.5-0.2,1.3-0.5,2.3-0.9c1-0.4,2.1-0.8,3.2-1.2c1.1-0.3,2-0.5,2.8-0.5c0.8,0,1.2,0.3,1.2,0.9l-3.2,13.9
			c0.9-1.4,2-2.8,3.2-4.2c1.2-1.5,2.3-2.8,3.5-4c1.2-1.2,2.4-2.2,3.5-3c1.2-0.8,2.2-1.3,3.2-1.4c0.2,0,0.6,0,1.4-0.1
			c0.7-0.1,1.5-0.1,2.4-0.2c0.9,0,1.6,0,2.3,0.1c0.6,0.1,0.9,0.3,0.8,0.8l-3.9,13.1c1.5-1.7,3-3.3,4.4-4.9c1.4-1.5,2.9-2.8,4.3-3.7
			c0.3-0.2,0.9-0.3,1.6-0.5c0.7-0.2,1.5-0.3,2.3-0.5c0.8-0.2,1.6-0.3,2.4-0.4c0.8-0.1,1.5-0.1,2-0.1c0.4,0,0.6,0.6,0.5,1.7
			c-0.1,1.2-0.4,2.4-0.7,3.8c-0.3,1.4-0.7,2.6-1.1,3.8c-0.4,1.2-0.6,1.8-0.6,1.9c-0.3,0.7-0.6,1.8-1.2,3.3c-0.5,1.5-1.1,3.3-1.7,5.2
			c-0.6,1.9-1.2,3.8-1.7,5.7c-0.5,1.9-0.9,3.6-1.2,5.1c-0.3,1.5-0.4,2.5-0.3,3.2c0.1,0.7,0.5,0.7,1.2,0c1.3-1.2,3-3,5-5.5
			s4.1-4.9,6.1-7.4c2.3-2.8,4.8-5.9,7.3-9.1c0.3-0.4,0.6-0.6,1-0.6c0.4,0,0.7,0.2,1,0.5c0.8,0.7,0.9,1.3,0.3,1.9
			c-3,3.7-5.5,6.8-7.5,9.2c-2,2.4-4,4.9-6.1,7.3c-2.1,2.4-3.8,4.3-5.1,5.6c-1.6,1.6-3.1,2.7-4.5,3.2
			C121.5,177.9,119.8,177.9,117.7,177.5z"/>
		<path id="XMLID_37_" class="st2" d="M164.2,141.3c-0.3,1.3-0.8,2.4-1.6,3.3c-0.8,0.9-1.8,1.8-2.9,2.4c-1.1,0.7-2.3,1.2-3.6,1.5
			c-1.3,0.3-2.5,0.5-3.7,0.5c-0.4,0.7-0.8,1.5-1.2,2.6c-0.4,1-0.7,2.1-0.9,3.3c-0.2,1.2-0.4,2.3-0.5,3.4c-0.1,1.1-0.1,2.1,0,3
			c0.3,1.5,1,2.4,2.1,2.5s2.3-0.2,3.7-1c1.4-0.8,2.9-1.9,4.6-3.3c1.6-1.4,3.2-2.9,4.7-4.5c1.5-1.6,2.9-3.1,4.1-4.6
			c1.2-1.5,2.2-2.6,2.9-3.5c0.3-0.3,0.6-0.7,0.9-1.1c0.3-0.4,0.6-0.8,0.9-1.1c0.3-0.3,0.7-0.6,1-0.6c0.3-0.1,0.8,0,1.3,0.3
			c0.5,0.7,0.5,1.3,0,1.9c-0.8,0.9-1.8,2.2-3,3.9c-1.2,1.6-2.6,3.4-4.1,5.2c-1.5,1.8-3.2,3.6-5.1,5.3c-1.8,1.7-3.8,3.1-5.7,4.1
			c-2,1-4,1.6-6.1,1.7c-2.1,0.1-4.1-0.6-6.2-2.1c-2.1-1.5-3.4-3.4-4-5.8c-0.6-2.4-0.7-4.9-0.2-7.6c0.5-2.7,1.4-5.2,2.8-7.6
			c1.4-2.4,3.1-4.4,5.1-5.9c2-1.5,4.1-2.4,6.4-2.6c2.3-0.2,4.6,0.7,6.8,2.6C163.7,138.3,164.2,139.5,164.2,141.3z M161.6,139.5
			c-0.8-0.3-1.6-0.1-2.4,0.3c-0.8,0.5-1.6,1.1-2.3,1.9c-0.7,0.8-1.3,1.6-1.9,2.4c-0.6,0.9-1,1.6-1.4,2.2c0.8,0,1.8-0.1,3-0.5
			c1.2-0.3,2.3-0.7,3.3-1.3c1-0.6,1.7-1.3,2.1-2.1C162.6,141.6,162.4,140.6,161.6,139.5z"/>
	</g>
</g>
</svg>
